<?xml version="1.0" standalone="no"?>
<!DOCTYPE svg PUBLIC "-//W3C//DTD SVG 20010904//EN"
 "http://www.w3.org/TR/2001/REC-SVG-20010904/DTD/svg10.dtd">
<svg version="1.0" xmlns="http://www.w3.org/2000/svg"
 width="512.000000pt" height="512.000000pt" viewBox="0 0 512.000000 512.000000"
 preserveAspectRatio="xMidYMid meet">

<g transform="translate(0.000000,512.000000) scale(0.100000,-0.100000)"
fill="#000000" stroke="none">
<path d="M1994 5106 c-356 -68 -634 -293 -762 -617 -71 -179 -89 -395 -44
-539 59 -188 186 -381 409 -626 l83 -92 0 -1399 c0 -970 3 -1418 11 -1459 59
-318 433 -467 706 -280 68 46 138 142 163 222 19 64 20 90 20 769 l0 704 -26
20 c-33 26 -65 27 -95 2 l-24 -19 -5 -714 -5 -713 -23 -42 c-30 -58 -86 -111
-141 -137 -70 -32 -198 -29 -267 6 -63 33 -116 91 -140 154 -18 47 -19 93 -19
1114 l0 1065 297 3 297 2 3 -256 c3 -255 3 -256 27 -275 32 -26 73 -24 99 4
l22 23 0 579 0 578 103 106 c243 250 405 499 452 699 14 57 17 98 12 195 -11
254 -112 474 -299 652 -135 130 -279 211 -448 255 -108 27 -305 35 -406 16z
m296 -147 c275 -44 518 -228 635 -483 84 -180 98 -388 38 -536 -66 -163 -200
-352 -383 -542 l-109 -113 -1 115 c-2 193 -13 280 -35 296 -27 20 -69 17 -96
-5 -24 -19 -24 -20 -20 -211 l3 -191 -43 3 -44 3 -5 353 c-5 335 -6 354 -24
368 -33 23 -82 18 -105 -12 -20 -26 -21 -38 -21 -370 l0 -344 -40 0 -40 0 -1
138 c-1 180 -10 251 -34 268 -26 20 -69 17 -96 -5 -23 -19 -23 -20 -20 -210 2
-127 -1 -191 -8 -191 -16 0 -226 234 -307 343 -94 125 -148 218 -187 321 -29
74 -31 90 -30 196 0 94 5 131 27 205 124 414 527 672 946 604z m140 -2044 l0
-225 -300 0 -300 0 0 225 0 225 300 0 300 0 0 -225z"/>
<path d="M4266 4839 c-31 -24 -32 -36 -9 -171 l17 -101 -87 -82 c-96 -90 -105
-113 -64 -160 19 -22 37 -28 133 -42 l112 -16 43 -90 c59 -120 73 -137 114
-137 44 0 57 15 112 124 25 50 50 94 55 97 5 3 52 11 105 18 112 15 137 24
152 58 18 39 5 61 -81 149 l-80 82 20 110 c21 123 18 145 -30 172 -26 14 -32
12 -138 -40 l-110 -54 -99 52 c-54 29 -107 52 -118 52 -11 0 -32 -9 -47 -21z
m199 -219 c38 -25 85 -25 135 0 48 24 53 25 46 3 -2 -10 -7 -37 -11 -60 -6
-40 -4 -45 39 -91 45 -48 46 -50 24 -56 -13 -3 -35 -6 -49 -6 -36 0 -72 -30
-94 -79 -10 -23 -21 -41 -25 -41 -3 0 -16 20 -28 45 -26 53 -51 71 -115 80
l-48 6 45 49 c48 51 50 59 37 128 -10 48 -2 52 44 22z"/>
<path d="M3877 3876 c-12 -13 -60 -79 -107 -145 l-85 -120 -170 6 c-165 5
-171 5 -197 -16 -50 -40 -40 -69 73 -224 l100 -137 -55 -161 c-31 -88 -56
-167 -56 -175 0 -23 46 -64 71 -64 13 0 93 23 179 51 l156 51 124 -94 c148
-113 162 -120 195 -112 50 12 55 34 55 221 l0 172 138 96 c154 108 173 131
149 181 -15 30 -25 35 -183 86 l-166 53 -49 158 c-26 88 -55 168 -65 178 -25
28 -79 25 -107 -5z m106 -444 c4 -6 54 -26 110 -43 56 -17 106 -34 110 -36 5
-3 -30 -32 -77 -65 -47 -32 -93 -69 -101 -81 -11 -16 -15 -50 -15 -135 l0
-113 -92 71 c-51 38 -102 70 -113 70 -12 0 -67 -15 -123 -34 -56 -19 -102 -34
-102 -32 0 1 16 49 35 106 19 57 35 112 35 121 0 9 -29 57 -65 105 -36 49 -65
92 -65 96 0 4 45 4 99 1 67 -4 109 -2 128 6 17 7 53 47 93 103 l64 92 36 -110
c19 -60 39 -115 43 -122z"/>
<path d="M813 3223 c-300 -243 -352 -300 -402 -436 -26 -71 -26 -76 -29 -379
l-3 -308 -73 0 c-83 0 -132 -14 -146 -40 -6 -12 -10 -352 -10 -923 0 -1031 -6
-963 85 -1054 83 -82 88 -83 560 -83 456 0 460 1 544 76 35 32 56 61 70 100
21 54 21 71 21 960 0 571 -4 912 -10 924 -15 28 -64 40 -161 40 l-89 0 0 145
c0 132 -2 147 -20 165 -25 25 -71 26 -101 1 -23 -18 -24 -26 -27 -165 l-3
-146 -245 0 -245 0 3 298 c3 327 5 338 70 434 30 45 286 270 323 284 9 4 31
-9 55 -34 l40 -40 0 -195 c0 -209 5 -237 47 -256 36 -16 51 -14 78 14 25 24
25 24 25 237 0 192 -2 217 -21 258 -32 72 -65 106 -130 139 -93 46 -133 43
-206 -16z m467 -1418 l0 -145 -349 0 c-337 0 -349 -1 -375 -21 -33 -26 -35
-73 -4 -106 l21 -23 354 0 353 0 0 -145 0 -145 -490 0 -490 0 0 365 0 365 490
0 490 0 0 -145z m0 -1137 c0 -444 0 -446 -63 -492 -28 -20 -40 -21 -425 -21
-395 0 -397 0 -428 22 -64 45 -64 49 -64 492 l0 401 490 0 490 0 0 -402z"/>
<path d="M3730 2249 c-484 -56 -868 -414 -972 -904 -18 -86 -15 -333 5 -422
102 -452 442 -786 889 -874 82 -16 326 -17 403 -1 224 47 423 152 575 302 288
284 400 689 299 1078 -44 165 -138 340 -239 444 -61 63 -83 70 -124 37 -40
-32 -36 -77 14 -134 87 -100 170 -257 203 -380 72 -268 25 -551 -129 -782
-133 -200 -329 -339 -570 -404 -113 -31 -345 -31 -456 -1 -286 78 -509 255
-635 507 -183 363 -111 813 176 1102 298 302 742 373 1123 182 89 -45 128 -49
158 -17 48 52 13 101 -113 163 -112 54 -250 92 -383 105 -112 11 -120 11 -224
-1z"/>
<path d="M3745 1950 c-88 -13 -210 -54 -295 -101 -113 -63 -252 -206 -312
-324 -57 -111 -86 -212 -95 -326 -35 -484 377 -898 862 -866 117 8 217 37 330
95 74 38 107 63 190 146 114 115 166 201 211 351 35 121 38 298 5 420 -78 291
-298 511 -584 584 -92 24 -229 33 -312 21z m208 -151 c205 -31 390 -164 486
-348 55 -106 74 -186 75 -306 0 -190 -58 -330 -194 -466 -70 -70 -102 -94
-170 -127 -196 -94 -399 -95 -585 -3 -138 68 -237 168 -306 306 -193 389 46
861 476 940 90 17 130 18 218 4z"/>
</g>
</svg>
