<?xml version="1.0" standalone="no"?>
<!DOCTYPE svg PUBLIC "-//W3C//DTD SVG 20010904//EN"
 "http://www.w3.org/TR/2001/REC-SVG-20010904/DTD/svg10.dtd">
<svg version="1.0" xmlns="http://www.w3.org/2000/svg"
 width="512.000000pt" height="512.000000pt" viewBox="0 0 512.000000 512.000000"
 preserveAspectRatio="xMidYMid meet">

<g transform="translate(0.000000,512.000000) scale(0.100000,-0.100000)"
fill="#000000" stroke="none">
<path d="M1905 5085 c-345 -65 -623 -276 -775 -589 -70 -143 -110 -313 -110
-463 0 -30 -11 -66 -35 -114 -166 -329 -167 -741 -1 -1079 55 -112 100 -179
186 -276 41 -46 89 -115 115 -164 66 -126 205 -287 284 -330 19 -9 21 -20 21
-95 0 -47 -4 -85 -8 -85 -32 0 -719 -103 -767 -115 -145 -36 -304 -142 -395
-264 -68 -90 -80 -117 -261 -586 l-157 -410 1573 -3 1573 -2 3 -153 c4 -140 6
-157 30 -202 28 -56 91 -109 147 -125 24 -6 310 -10 817 -10 763 0 781 1 825
21 55 25 95 62 123 114 l22 40 0 905 0 905 -24 72 c-53 162 -182 301 -333 358
l-48 18 0 178 0 179 -165 0 -165 0 0 245 0 245 290 0 290 0 0 155 c0 152 0
155 -22 160 -13 3 -214 44 -448 90 l-424 85 -168 0 -168 0 0 -245 0 -245 80 0
80 0 0 -245 0 -245 -162 -2 -163 -3 -3 -175 -3 -175 -79 -38 c-141 -66 -254
-196 -300 -344 -10 -34 -22 -107 -26 -163 l-7 -100 -31 5 c-45 8 -517 75 -527
75 -5 0 -9 37 -9 83 l1 82 56 40 c99 71 203 200 262 325 15 32 56 89 90 127
282 307 389 733 287 1136 -14 54 -47 146 -74 205 -46 101 -49 113 -55 212 -26
489 -394 900 -881 985 -105 18 -264 18 -361 0z m281 -155 c109 -14 182 -34
269 -74 233 -108 404 -297 485 -536 12 -34 20 -64 18 -65 -2 -2 -32 22 -68 52
-423 365 -1024 400 -1494 88 -28 -18 -80 -59 -114 -91 -35 -31 -65 -55 -67
-52 -6 6 39 128 75 200 124 249 397 440 683 477 90 12 123 12 213 1z m25 -495
c218 -18 457 -135 628 -305 327 -327 404 -812 195 -1234 l-39 -79 -3 362 -2
361 -33 0 c-102 1 -332 23 -419 40 -136 28 -291 81 -409 141 -54 27 -102 49
-107 49 -4 0 -25 -29 -46 -65 -37 -63 -38 -67 -20 -80 11 -7 17 -15 14 -18
-22 -21 -525 -65 -752 -67 l-38 0 -2 -357 -3 -358 -42 85 c-197 400 -125 875
182 1199 146 154 316 253 522 306 71 17 220 34 273 29 19 -2 65 -6 101 -9z
m2197 -881 c210 -43 382 -81 382 -85 0 -5 -202 -9 -450 -9 l-450 0 0 85 0 85
68 0 c44 0 199 -26 450 -76z m-2093 -84 c106 -33 260 -66 355 -75 36 -3 84 -8
108 -11 l42 -5 0 -338 c0 -303 -2 -346 -20 -414 -55 -215 -193 -384 -395 -482
-403 -196 -876 8 -1022 440 -27 80 -27 80 -31 436 l-4 357 114 6 c267 16 536
53 678 95 36 10 69 19 74 20 5 0 50 -12 101 -29z m1905 -415 l0 -245 -85 0
-85 0 0 238 c0 131 3 242 7 245 3 4 42 7 85 7 l78 0 0 -245z m330 -495 l0 -80
-410 0 -410 0 0 80 0 80 410 0 410 0 0 -80z m114 -265 c71 -22 125 -56 180
-114 98 -105 118 -197 114 -501 l-3 -185 -253 -3 -253 -2 -60 52 c-168 149
-312 198 -586 198 l-163 0 0 -125 0 -125 -160 0 -161 0 3 258 3 257 31 66 c52
110 128 178 243 221 41 14 104 17 531 17 403 1 493 -2 534 -14z m-2822 -355
c40 -11 112 -24 161 -29 123 -12 226 0 385 45 21 6 22 3 22 -43 l0 -50 -161
-107 -161 -107 -164 108 -164 108 0 48 c0 26 2 47 5 47 3 0 37 -9 77 -20z
m435 -635 c49 -59 53 -89 53 -374 l0 -261 -80 0 -80 0 0 183 c0 207 -11 269
-63 356 -42 71 -64 88 -378 308 -148 103 -266 189 -262 190 5 2 49 9 98 16
l90 13 296 -197 c168 -112 309 -213 326 -234z m353 415 c41 -6 76 -12 78 -14
2 -2 -74 -59 -168 -127 -120 -85 -176 -120 -185 -113 -6 5 -35 25 -63 44 -29
19 -52 37 -52 40 0 3 62 46 138 97 87 58 144 90 157 87 11 -2 54 -8 95 -14z
m-1092 -269 c408 -286 408 -286 437 -345 24 -48 25 -58 25 -243 l0 -193 -880
0 c-484 0 -880 2 -880 4 0 20 249 644 273 685 65 110 194 210 322 251 42 14
309 57 360 59 24 1 96 -46 343 -218z m1530 207 l82 -11 0 -489 0 -488 -324 0
-324 0 -4 283 c-4 228 -8 290 -21 325 l-16 43 51 37 c29 20 138 99 243 174
104 75 199 137 210 137 11 1 57 -4 103 -11z m972 -103 c152 -40 286 -150 357
-292 50 -100 65 -165 61 -271 l-3 -81 -199 240 c-109 131 -205 244 -213 250
-10 9 -26 1 -70 -37 -32 -26 -60 -49 -61 -50 -2 -1 98 -124 222 -273 124 -149
226 -273 226 -277 0 -13 -109 6 -174 30 -88 31 -155 76 -220 146 -121 132
-156 239 -156 483 l0 160 88 -7 c48 -3 112 -13 142 -21z m-388 -305 c6 -63 31
-156 63 -232 7 -17 -6 -18 -194 -18 l-201 0 0 165 0 165 163 -2 162 -3 7 -75z
m1306 -82 l-3 -163 -162 -3 -161 -2 -7 57 c-10 84 -31 171 -54 226 l-20 47
205 0 204 0 -2 -162z m-1060 -389 c73 -66 206 -138 307 -165 39 -10 125 -18
243 -21 l182 -6 0 127 0 126 165 0 165 0 0 -284 c0 -181 -4 -294 -11 -315 -22
-63 7 -61 -807 -61 -763 0 -791 1 -812 40 -6 11 -10 142 -10 319 l0 301 256 0
256 0 66 -61z"/>
<path d="M4550 2066 c0 -77 2 -86 18 -86 42 0 57 -36 60 -141 l4 -99 79 0 79
0 0 108 c0 86 -4 116 -21 152 -35 79 -99 130 -182 145 l-37 7 0 -86z"/>
</g>
</svg>
