<?xml version="1.0" standalone="no"?>
<!DOCTYPE svg PUBLIC "-//W3C//DTD SVG 20010904//EN"
 "http://www.w3.org/TR/2001/REC-SVG-20010904/DTD/svg10.dtd">
<svg version="1.0" xmlns="http://www.w3.org/2000/svg"
 width="512.000000pt" height="512.000000pt" viewBox="0 0 512.000000 512.000000"
 preserveAspectRatio="xMidYMid meet">

<g transform="translate(0.000000,512.000000) scale(0.100000,-0.100000)"
fill="#000000" stroke="none">
<path d="M2514 5106 c-166 -38 -318 -161 -392 -316 -55 -115 -70 -210 -53
-328 7 -48 21 -107 32 -131 25 -58 25 -61 -14 -61 -55 0 -125 -26 -282 -104
-301 -149 -634 -382 -873 -611 -233 -222 -312 -434 -284 -755 l12 -133 -68
-73 c-138 -152 -205 -231 -266 -319 -233 -331 -328 -611 -277 -816 12 -50 12
-62 -3 -107 -45 -133 -56 -313 -31 -468 67 -415 366 -740 784 -852 83 -22 116
-25 251 -26 133 0 167 3 240 24 97 27 130 29 215 11 242 -51 671 161 1062 525
l102 95 113 -12 c297 -30 511 35 706 216 171 159 511 598 528 683 8 40 -27 82
-70 82 -38 0 -53 -14 -126 -125 -165 -248 -403 -522 -522 -601 -129 -86 -308
-129 -460 -110 l-55 7 45 67 c57 85 98 175 124 271 44 167 13 704 -73 1289
-18 117 -29 216 -25 219 9 9 311 -60 516 -119 218 -62 409 -132 567 -209 103
-50 127 -65 150 -99 44 -68 43 -127 -6 -248 -23 -57 -41 -109 -41 -118 0 -24
46 -64 74 -64 14 0 36 10 49 23 33 30 97 187 104 254 5 44 9 53 22 48 189 -73
346 -71 507 7 95 45 217 167 262 262 37 76 62 175 62 248 0 107 -40 243 -98
331 l-26 38 33 97 c103 312 105 651 4 967 -51 161 -166 370 -271 493 l-46 54
24 19 c68 54 120 85 194 116 88 36 106 52 106 95 0 43 -36 71 -85 65 -58 -6
-199 -75 -278 -136 l-67 -52 -68 54 c-403 325 -939 419 -1444 255 l-97 -31
-40 26 c-121 80 -307 115 -447 83z m221 -147 c58 -15 95 -30 95 -39 0 -5 -24
-22 -53 -38 -151 -85 -339 -257 -460 -421 l-71 -94 -13 39 c-49 139 -12 308
94 425 98 108 273 164 408 128z m1098 -24 c423 -74 790 -349 985 -740 49 -99
97 -246 119 -368 25 -137 22 -371 -6 -507 -62 -294 -194 -542 -397 -743 -91
-90 -213 -185 -289 -227 l-43 -23 -43 37 c-143 124 -703 320 -1213 425 l-129
27 -43 191 c-82 373 -174 669 -286 923 -62 141 -93 196 -136 243 l-26 28 24
43 c73 135 255 335 398 438 200 145 445 240 691 268 99 11 283 4 394 -15z
m-1614 -848 c47 -31 90 -109 164 -297 196 -501 355 -1222 412 -1882 21 -243
33 -557 24 -648 -15 -156 -90 -299 -246 -470 -252 -276 -542 -479 -816 -572
-118 -40 -238 -45 -284 -12 -86 63 -229 419 -357 893 -31 112 -60 209 -66 216
-19 23 -68 28 -95 11 -32 -21 -40 -57 -25 -112 7 -24 11 -47 8 -49 -6 -6 -307
91 -421 136 -121 48 -219 98 -274 138 -31 23 -45 41 -54 73 -48 178 152 588
439 901 30 33 54 52 56 45 3 -7 16 -89 30 -183 14 -93 49 -289 78 -435 55
-285 65 -310 123 -310 31 0 75 41 75 69 0 10 -15 93 -34 183 -100 475 -177
1049 -162 1211 13 140 78 283 178 392 210 230 705 573 1010 701 104 43 172 44
237 1z m2719 -1284 c88 -222 -23 -476 -248 -565 -68 -27 -221 -30 -284 -6
l-39 14 94 71 c165 123 309 278 410 442 24 39 47 71 50 71 4 0 11 -12 17 -27z
m-4661 -1558 c142 -72 316 -136 610 -225 l102 -31 22 -72 c80 -274 162 -497
235 -641 25 -48 44 -89 42 -91 -12 -9 -107 -25 -183 -31 -189 -14 -401 45
-565 156 -71 48 -182 159 -230 230 -111 163 -171 380 -156 564 6 74 25 186 32
186 2 0 42 -20 91 -45z"/>
<path d="M3143 4324 c-92 -45 -112 -123 -41 -160 27 -14 33 -14 72 5 55 27 91
27 110 -1 21 -30 20 -58 -4 -88 -34 -43 -25 -92 21 -115 49 -26 91 0 129 80
49 100 0 229 -105 276 -50 23 -139 24 -182 3z"/>
<path d="M3407 3722 c-41 -45 -24 -155 36 -234 65 -85 222 -133 276 -84 48 43
14 126 -52 126 -18 0 -48 8 -66 18 -40 22 -71 73 -71 119 0 20 -8 41 -20 53
-25 25 -81 26 -103 2z"/>
<path d="M4045 3430 c-80 -38 -106 -80 -80 -129 23 -46 72 -55 115 -21 30 24
58 25 88 4 28 -19 28 -55 1 -110 -19 -39 -19 -45 -5 -72 52 -101 176 -10 176
130 -1 158 -158 264 -295 198z"/>
</g>
</svg>
