<?xml version="1.0" standalone="no"?>
<!DOCTYPE svg PUBLIC "-//W3C//DTD SVG 20010904//EN"
 "http://www.w3.org/TR/2001/REC-SVG-20010904/DTD/svg10.dtd">
<svg version="1.0" xmlns="http://www.w3.org/2000/svg"
 width="512.000000pt" height="512.000000pt" viewBox="0 0 512.000000 512.000000"
 preserveAspectRatio="xMidYMid meet">

<g transform="translate(0.000000,512.000000) scale(0.100000,-0.100000)"
fill="#000000" stroke="none">
<path d="M3371 4804 c-96 -26 -163 -83 -205 -173 -20 -43 -21 -66 -24 -333 -4
-362 -7 -354 128 -360 l55 -3 3 -86 3 -86 -123 -6 c-136 -7 -209 -26 -290 -78
-102 -66 -185 -189 -208 -308 -14 -73 -14 -2608 0 -2682 31 -168 171 -319 337
-365 64 -18 118 -19 878 -19 l810 0 59 23 c166 63 285 199 316 361 14 74 14
2608 0 2682 -23 119 -106 242 -208 308 -81 52 -154 71 -290 78 l-123 6 3 86 3
86 72 5 c114 8 108 -12 108 343 0 287 -1 304 -21 348 -31 67 -87 124 -152 156
l-57 28 -510 2 c-424 2 -519 0 -564 -13z m1075 -170 c68 -50 69 -53 72 -305
l3 -229 -145 0 -146 0 0 110 c0 104 -1 112 -25 135 -29 30 -74 32 -106 6 -22
-18 -24 -27 -27 -135 l-4 -116 -159 0 -159 0 0 110 c0 104 -1 112 -25 135 -15
16 -36 25 -55 25 -19 0 -40 -9 -55 -25 -24 -23 -25 -31 -25 -135 l0 -110 -145
0 -145 0 0 208 c0 114 5 223 10 243 12 41 55 86 96 99 16 5 250 8 521 7 479
-2 492 -3 519 -23z m-116 -784 l0 -90 -420 0 -420 0 0 90 0 90 420 0 420 0 0
-90z m440 -281 c68 -33 122 -85 157 -152 24 -47 27 -65 31 -184 l4 -133 -1052
0 -1052 0 4 128 c3 112 6 134 29 182 44 93 128 161 222 180 23 4 393 7 822 7
l780 -2 55 -26z m190 -1539 l0 -910 -1050 0 -1050 0 0 910 0 910 1050 0 1050
0 0 -910z m-2 -1202 c-4 -119 -7 -138 -30 -183 -35 -67 -91 -122 -158 -154
l-55 -26 -760 -3 c-787 -3 -850 -1 -924 38 -52 26 -116 97 -143 155 -19 41
-23 72 -26 178 l-4 127 1052 0 1052 0 -4 -132z"/>
<path d="M3851 2584 c-20 -25 -21 -39 -21 -250 l0 -224 -224 0 c-211 0 -225
-1 -250 -21 -20 -16 -26 -29 -26 -59 0 -30 6 -43 26 -59 25 -20 39 -21 250
-21 l224 0 0 -224 c0 -211 1 -225 21 -250 16 -20 29 -26 59 -26 30 0 43 6 59
26 20 25 21 39 21 250 l0 224 224 0 c211 0 225 1 250 21 20 16 26 29 26 59 0
30 -6 43 -26 59 -25 20 -39 21 -250 21 l-224 0 0 224 c0 211 -1 225 -21 250
-16 20 -29 26 -59 26 -30 0 -43 -6 -59 -26z"/>
<path d="M265 3710 c-97 -24 -187 -97 -232 -189 l-28 -56 0 -1450 0 -1450 28
-60 c35 -76 110 -146 185 -177 l57 -23 945 0 945 0 58 23 c73 30 149 104 185
179 l27 58 0 1445 0 1445 -28 60 c-46 98 -116 159 -217 189 -47 14 -161 16
-974 15 -507 -1 -934 -4 -951 -9z m1913 -171 c26 -13 54 -38 70 -62 l27 -41 3
-1400 c2 -977 0 -1412 -8 -1438 -13 -45 -52 -93 -94 -116 -28 -16 -103 -17
-934 -20 -617 -2 -916 1 -943 8 -21 6 -55 24 -73 41 -71 62 -67 -41 -64 1520
l3 1405 27 41 c15 23 44 49 70 62 l43 21 914 0 c912 0 915 0 959 -21z"/>
<path d="M591 3379 c-101 -20 -190 -91 -234 -187 -32 -69 -30 -189 3 -257 119
-246 461 -246 580 0 36 76 35 190 -3 267 -63 129 -210 205 -346 177z m146
-180 c44 -27 77 -99 70 -151 -10 -77 -79 -138 -154 -138 -144 0 -214 167 -112
269 53 53 129 61 196 20z"/>
<path d="M1194 3380 c-12 -5 -29 -19 -38 -32 -14 -20 -16 -146 -16 -1341 l0
-1318 25 -24 c32 -33 78 -33 110 0 l25 24 0 1320 0 1320 -22 25 c-27 29 -55
38 -84 26z"/>
<path d="M1734 3380 c-103 -21 -195 -92 -235 -183 -35 -79 -34 -192 4 -269 72
-146 247 -215 400 -158 76 29 130 79 169 158 65 132 37 277 -73 376 -70 63
-177 94 -265 76z m143 -181 c44 -27 77 -99 70 -151 -10 -77 -79 -138 -154
-138 -144 0 -214 167 -112 269 53 53 129 61 196 20z"/>
<path d="M531 2658 c-67 -25 -144 -99 -174 -166 -33 -74 -31 -189 6 -264 121
-246 467 -239 581 11 30 68 28 189 -4 256 -74 154 -251 224 -409 163z m199
-160 c76 -52 98 -125 61 -202 -59 -121 -223 -120 -282 2 -51 103 25 222 141
222 32 0 57 -7 80 -22z"/>
<path d="M1674 2659 c-71 -27 -137 -88 -171 -157 -24 -48 -28 -70 -28 -137 0
-67 4 -89 28 -137 101 -207 375 -244 526 -72 96 109 104 269 20 391 -81 117
-240 164 -375 112z m185 -154 c104 -53 118 -180 31 -259 -39 -35 -61 -42 -125
-37 -77 6 -143 93 -132 173 14 105 135 171 226 123z"/>
<path d="M553 1962 c-109 -39 -178 -112 -210 -221 -29 -103 5 -228 83 -306
124 -122 328 -121 449 1 121 124 121 327 0 449 -82 81 -219 114 -322 77z m191
-175 c93 -72 79 -220 -27 -267 -55 -25 -83 -25 -137 3 -154 77 -89 308 82 294
31 -3 59 -13 82 -30z"/>
<path d="M1715 1971 c-87 -23 -162 -82 -206 -163 -31 -58 -34 -70 -33 -148 0
-73 4 -93 27 -137 60 -116 160 -178 287 -178 93 0 155 26 222 92 65 64 92 128
92 223 1 89 -28 161 -89 224 -71 72 -207 112 -300 87z m150 -174 c43 -24 85
-91 85 -137 0 -49 -42 -113 -90 -138 -147 -76 -297 100 -197 231 51 67 131 84
202 44z"/>
<path d="M591 1269 c-101 -20 -190 -91 -234 -187 -32 -68 -30 -188 3 -257 118
-246 461 -246 580 0 36 76 35 190 -3 267 -63 129 -210 205 -346 177z m146
-180 c44 -27 77 -99 70 -151 -10 -77 -79 -138 -154 -138 -144 0 -214 167 -112
269 53 53 129 61 196 20z"/>
<path d="M1734 1270 c-103 -21 -195 -92 -235 -183 -32 -72 -33 -191 -2 -259
51 -111 171 -188 293 -188 124 0 226 64 282 178 65 132 37 277 -73 376 -70 63
-177 94 -265 76z m143 -181 c68 -42 92 -155 45 -218 -67 -91 -184 -96 -255
-11 -89 106 6 274 143 254 19 -3 49 -14 67 -25z"/>
</g>
</svg>
