<?xml version="1.0" standalone="no"?>
<!DOCTYPE svg PUBLIC "-//W3C//DTD SVG 20010904//EN"
 "http://www.w3.org/TR/2001/REC-SVG-20010904/DTD/svg10.dtd">
<svg version="1.0" xmlns="http://www.w3.org/2000/svg"
 width="512.000000pt" height="512.000000pt" viewBox="0 0 512.000000 512.000000"
 preserveAspectRatio="xMidYMid meet">

<g transform="translate(0.000000,512.000000) scale(0.100000,-0.100000)"
fill="#000000" stroke="none">
<path d="M2525 4926 c-16 -12 -550 -382 -1185 -820 -635 -439 -1158 -801
-1163 -805 -5 -5 329 -500 357 -528 2 -2 79 48 171 111 91 64 168 116 171 116
2 0 4 -567 4 -1260 l0 -1260 1109 0 1108 0 5 -70 c9 -120 78 -213 178 -240 26
-7 248 -10 662 -8 l623 3 46 27 c52 31 95 87 113 150 7 23 26 209 42 412 l29
368 52 34 c77 49 108 108 108 204 0 64 -4 82 -28 123 -29 48 -104 107 -137
107 -9 0 -24 8 -32 18 -8 9 -115 172 -238 362 -122 190 -235 359 -251 376
l-29 30 2 313 3 312 174 -121 c95 -66 175 -119 176 -118 127 185 350 506 357
514 6 8 -372 275 -1192 843 -660 457 -1201 831 -1203 831 -1 0 -15 -11 -32
-24z m1124 -929 l1079 -749 -90 -129 c-50 -72 -95 -128 -102 -126 -6 3 -450
311 -987 686 -537 374 -982 681 -989 681 -6 0 -454 -306 -996 -680 -541 -374
-988 -680 -993 -680 -4 0 -48 57 -96 126 -64 92 -85 128 -76 137 22 22 2156
1486 2164 1484 4 -1 493 -339 1086 -750z m-323 -359 l754 -523 0 -347 0 -348
-28 0 c-15 0 -51 -12 -80 -26 -52 -26 -52 -26 -79 -6 -94 65 -230 54 -308 -25
-17 -16 -129 -182 -249 -369 -256 -397 -262 -404 -285 -404 -34 0 -109 -58
-138 -107 -24 -41 -28 -59 -28 -123 0 -96 31 -155 109 -205 l52 -33 12 -168
c7 -93 16 -202 19 -241 l6 -73 -1022 0 -1021 0 0 1238 0 1238 753 521 c413
287 758 522 765 522 8 1 353 -234 768 -521z m815 -1381 c14 -11 429 -642 429
-652 0 -3 -46 -5 -102 -5 l-103 1 -160 260 c-208 339 -200 323 -185 358 18 45
85 66 121 38z m-341 -19 c40 -43 30 -66 -152 -359 l-173 -278 -102 -1 c-57 0
-103 2 -103 5 0 11 413 631 428 643 26 20 79 15 102 -10z m245 -435 l124 -198
-246 -3 c-135 -1 -248 -1 -250 1 -2 2 52 94 119 205 68 110 124 199 126 197 2
-2 59 -92 127 -202z m730 -388 c16 -15 25 -36 25 -55 0 -19 -9 -40 -25 -55
l-24 -25 -831 0 -831 0 -24 25 c-16 15 -25 36 -25 55 0 19 9 40 25 55 l24 25
831 0 831 0 24 -25z m-138 -337 c-3 -24 -18 -191 -33 -373 -28 -329 -28 -330
-55 -357 l-27 -28 -592 0 c-639 0 -643 0 -655 53 -4 20 -65 706 -65 735 0 9
150 12 716 12 l717 0 -6 -42z"/>
<path d="M1920 2880 l0 -560 640 0 640 0 0 560 0 560 -640 0 -640 0 0 -560z
m560 240 l0 -160 -200 0 -200 0 0 160 0 160 200 0 200 0 0 -160z m560 0 l0
-160 -200 0 -200 0 0 160 0 160 200 0 200 0 0 -160z m-560 -480 l0 -160 -200
0 -200 0 0 160 0 160 200 0 200 0 0 -160z m560 0 l0 -160 -200 0 -200 0 0 160
0 160 200 0 200 0 0 -160z"/>
<path d="M3520 720 l0 -240 80 0 80 0 0 240 0 240 -80 0 -80 0 0 -240z"/>
<path d="M3840 720 l0 -240 80 0 80 0 0 240 0 240 -80 0 -80 0 0 -240z"/>
<path d="M4160 720 l0 -240 80 0 80 0 0 240 0 240 -80 0 -80 0 0 -240z"/>
</g>
</svg>
